<?xml version="1.0" standalone="no"?>
<!DOCTYPE svg PUBLIC "-//W3C//DTD SVG 20010904//EN"
 "http://www.w3.org/TR/2001/REC-SVG-20010904/DTD/svg10.dtd">
<svg version="1.0" xmlns="http://www.w3.org/2000/svg"
 width="500.000000pt" height="500.000000pt" viewBox="0 0 500.000000 500.000000"
 preserveAspectRatio="xMidYMid meet">

<g transform="translate(0.000000,500.000000) scale(0.100000,-0.100000)"
fill="#000000" stroke="none">
<path d="M0 2500 l0 -2500 2500 0 2500 0 0 2500 0 2500 -2500 0 -2500 0 0
-2500z m2650 1990 c178 -22 357 -74 509 -149 421 -206 730 -585 845 -1036 71
-279 58 -615 -33 -882 l-28 -82 37 -3 38 -3 -83 -140 c-46 -77 -84 -145 -85
-150 0 -6 38 -75 85 -155 l84 -145 -244 -3 -245 -2 -109 -83 c-277 -210 -598
-317 -951 -317 -356 0 -672 107 -960 324 l-95 71 -247 5 -247 5 84 145 c47 80
85 150 84 155 0 6 -38 73 -84 150 l-84 140 38 3 39 3 -19 48 c-28 74 -66 236
-79 338 -18 129 -8 380 20 507 104 485 415 886 853 1103 152 75 335 130 502
152 100 12 276 13 375 1z"/>
<path d="M2320 4450 c-190 -20 -347 -64 -515 -145 -246 -119 -435 -280 -599
-510 -63 -88 -162 -284 -195 -385 -104 -324 -106 -649 -5 -961 l35 -109 159 0
c153 0 160 1 196 25 46 31 68 31 123 0 42 -24 49 -25 231 -25 180 0 189 1 195
20 4 13 23 25 58 34 81 23 88 22 162 -14 l69 -35 229 -3 229 -3 77 37 c81 40
89 41 168 18 35 -9 54 -21 58 -34 6 -19 15 -20 195 -20 182 0 189 1 231 25 55
31 77 31 123 0 36 -24 43 -25 196 -25 l158 0 31 93 c100 306 106 611 16 922
-142 491 -549 898 -1040 1040 -175 50 -413 73 -585 55z m416 -310 l52 -11 -9
-37 c-5 -20 -12 -98 -15 -172 -5 -99 -11 -140 -22 -152 -14 -16 -40 -18 -269
-18 -233 0 -254 1 -271 18 -16 16 -20 42 -25 158 -4 76 -8 148 -9 159 -8 53
402 93 568 55z m274 -100 c114 -57 233 -140 317 -223 70 -68 86 -90 107 -146
73 -198 92 -373 61 -557 -20 -115 -40 -178 -77 -236 -40 -63 -150 -165 -229
-211 -86 -50 -248 -112 -334 -129 -108 -20 -409 -17 -515 6 -91 19 -274 75
-268 81 2 2 40 -2 83 -9 199 -34 312 -39 475 -22 317 34 557 115 677 229 102
96 142 233 129 437 -16 244 -52 321 -168 364 -156 57 -886 83 -1278 46 -264
-25 -344 -44 -397 -93 -32 -29 -29 -15 22 88 88 179 250 324 447 402 38 14 70
24 72 22 11 -10 26 -141 26 -221 0 -77 3 -90 24 -115 l24 -28 234 -3 c128 -2
248 0 266 3 59 11 68 31 75 168 4 68 11 146 17 174 l11 51 67 -22 c37 -13 96
-38 132 -56z m-1671 -488 c-11 -46 -24 -118 -28 -160 -5 -42 -9 -61 -10 -42 0
19 4 87 10 150 7 85 14 118 26 127 9 7 18 12 19 10 1 -1 -7 -39 -17 -85z
m2283 32 c3 -21 9 -88 12 -149 5 -105 4 -106 -4 -30 -5 44 -16 113 -23 153
-10 50 -11 72 -3 69 6 -2 14 -21 18 -43z m-972 16 c177 -23 270 -43 150 -32
-119 11 -557 6 -650 -7 -46 -7 -114 -22 -150 -34 -158 -52 -256 -235 -261
-487 l-1 -75 -20 60 c-29 84 -37 299 -15 376 23 76 68 133 130 163 112 55 529
73 817 36z m-1380 -80 c-12 -104 -12 -406 0 -514 6 -49 8 -91 5 -94 -8 -8 -43
79 -62 154 -27 108 -24 316 5 419 20 67 48 123 58 113 1 -2 -2 -37 -6 -78z
m2451 -25 c26 -98 35 -255 20 -355 -17 -108 -62 -242 -77 -227 -2 2 1 39 6 83
12 90 13 436 2 535 -7 62 -7 66 10 56 10 -7 26 -45 39 -92z m-1576 -124 c84
-39 136 -133 143 -259 8 -139 -48 -265 -138 -314 -47 -26 -134 -21 -177 10
-71 51 -123 167 -123 277 0 209 149 354 295 286z m870 0 c50 -23 76 -51 112
-121 25 -50 28 -65 28 -161 0 -102 -1 -109 -35 -174 -20 -40 -51 -81 -73 -99
-35 -28 -46 -31 -107 -31 -61 0 -72 3 -107 31 -22 18 -52 59 -72 97 -124 240
50 552 254 458z m-1227 -918 c-10 -2 -26 -2 -35 0 -10 3 -2 5 17 5 19 0 27 -2
18 -5z m-65 -10 c-7 -2 -19 -2 -25 0 -7 3 -2 5 12 5 14 0 19 -2 13 -5z m-64
-17 c-2 -2 -15 -9 -29 -15 -24 -11 -24 -11 -6 3 16 13 49 24 35 12z m-89 -46
l35 -31 -45 27 c-56 33 -57 34 -39 34 8 0 30 -14 49 -30z m1860 26 c0 -9 -90
-56 -106 -56 -16 0 -17 2 -4 15 20 19 110 53 110 41z"/>
<path d="M980 2304 c0 -3 34 -64 75 -134 l76 -128 -79 -133 -79 -134 749 -3
c411 -1 1085 -1 1496 0 l749 3 -79 134 -79 133 76 128 c41 70 75 131 75 134 0
3 -670 6 -1490 6 -820 0 -1490 -3 -1490 -6z m488 -214 c2 -41 8 -80 13 -87 17
-19 1 -33 -37 -33 -33 0 -48 20 -24 35 14 8 13 118 -1 132 -16 16 -1 35 24 31
20 -3 22 -10 25 -78z m262 40 c0 -37 1 -39 24 -30 39 14 66 -12 66 -64 0 -24
-6 -48 -13 -54 -16 -14 -125 -14 -133 0 -3 5 -1 15 5 21 6 6 11 36 11 67 0 31
-5 61 -11 67 -16 16 -2 33 27 33 21 0 24 -4 24 -40z m778 17 c4 -20 -25 -34
-40 -19 -15 15 -1 44 19 40 10 -2 19 -11 21 -21z m-1134 7 c24 -9 21 -54 -4
-54 -11 0 -20 5 -20 10 0 6 -13 10 -30 10 -23 0 -30 -4 -30 -20 0 -15 7 -20
26 -20 33 0 30 -33 -4 -38 -12 -2 -22 -10 -22 -18 0 -17 56 -20 62 -2 7 21 40
0 36 -24 -3 -21 -9 -23 -77 -26 -76 -3 -106 7 -83 30 15 15 16 100 1 115 -7 7
-9 19 -6 27 5 12 22 16 71 16 35 0 71 -3 80 -6z m1620 -51 l35 -58 1 37 c0 20
-5 38 -12 40 -6 2 -9 12 -5 21 6 17 62 25 70 10 2 -5 1 -46 -2 -93 -6 -82 -7
-85 -30 -85 -19 0 -32 12 -58 55 l-33 55 0 -35 c0 -20 5 -41 11 -47 17 -17 1
-33 -34 -33 l-32 0 2 93 c1 50 2 93 2 95 1 1 12 2 25 2 19 0 33 -13 60 -57z
m-607 20 c4 -10 14 -23 22 -30 14 -10 14 -12 -1 -18 -22 -9 -24 -60 -3 -69 27
-10 17 -36 -13 -36 -38 0 -52 17 -52 62 0 21 -4 38 -10 38 -5 0 -10 7 -10 15
0 8 5 15 10 15 6 0 10 9 10 20 0 25 38 27 47 3z m790 0 c4 -10 14 -23 22 -30
14 -10 14 -12 -1 -18 -22 -9 -24 -60 -3 -69 27 -10 17 -36 -13 -36 -38 0 -52
17 -52 62 0 21 -4 38 -10 38 -5 0 -10 7 -10 15 0 8 5 15 10 15 6 0 10 9 10 20
0 25 38 27 47 3z m-1572 -23 c19 0 31 -25 39 -81 l7 -47 -65 0 c-58 0 -66 2
-72 21 -8 24 25 57 57 57 10 0 19 5 19 10 0 13 -23 13 -37 -1 -15 -15 -33 -3
-33 21 0 19 31 31 58 24 8 -2 20 -4 27 -4z m364 -14 c9 -11 14 -38 12 -68 -2
-27 -30 -48 -66 -48 -18 0 -41 7 -49 16 -17 16 -21 70 -8 91 18 29 90 35 111
9z m171 -12 c0 -26 -19 -31 -38 -12 -10 10 -15 10 -22 -2 -13 -20 -13 -47 0
-55 24 -15 9 -35 -24 -35 -38 0 -55 15 -37 33 15 15 14 64 -1 69 -25 9 5 28
43 26 21 -1 42 1 45 5 12 12 34 -6 34 -29z m115 26 c19 0 31 -25 39 -81 l7
-47 -65 0 c-58 0 -66 2 -72 21 -8 24 25 57 57 57 10 0 19 5 19 10 0 13 -23 13
-37 -1 -15 -15 -33 -3 -33 21 0 19 31 31 58 24 8 -2 20 -4 27 -4z m414 -14 c9
-11 14 -38 12 -68 -2 -27 -30 -48 -66 -48 -18 0 -41 7 -49 16 -17 16 -21 70
-8 91 18 29 90 35 111 9z m179 -32 c2 -21 8 -43 13 -48 19 -20 10 -37 -18 -34
-25 3 -29 8 -33 48 -3 31 -10 45 -20 45 -19 0 -26 -41 -10 -60 17 -20 4 -35
-30 -35 -33 0 -48 16 -31 33 14 14 15 67 1 67 -5 0 -10 7 -10 15 0 12 10 15
40 13 22 -1 42 1 46 4 3 4 16 3 27 -1 17 -6 23 -18 25 -47z m514 23 c4 -7 8
-22 8 -34 0 -21 -5 -23 -46 -23 -30 0 -43 -4 -38 -11 4 -7 21 -9 41 -6 28 5
34 3 31 -11 -3 -19 -45 -27 -84 -18 -35 9 -49 80 -22 113 20 25 92 18 110 -10z
m151 16 c4 -2 7 -22 7 -43 0 -21 5 -42 10 -45 6 -3 10 -12 10 -20 0 -10 -16
-13 -67 -12 -61 2 -68 4 -71 24 -3 23 30 53 60 53 10 0 18 5 18 10 0 6 -9 10
-20 10 -11 0 -20 -4 -20 -10 0 -5 -7 -10 -15 -10 -26 0 -19 48 8 53 21 4 64
-2 80 -10z m202 7 c33 12 53 -6 57 -52 3 -24 6 -50 9 -58 3 -10 -5 -16 -23
-18 -26 -3 -28 -1 -28 32 0 41 -8 66 -22 66 -7 0 -9 -18 -5 -50 6 -47 5 -50
-17 -50 -27 0 -36 17 -36 66 0 19 -5 34 -11 34 -8 0 -10 -16 -6 -50 l6 -50
-32 0 -32 0 0 65 0 65 38 -2 c20 -1 40 2 43 5 4 3 14 3 23 -2 9 -5 25 -5 36
-1z m-1211 -12 c3 -7 7 -37 10 -65 l5 -53 -32 0 -32 0 0 65 c0 61 1 65 23 65
12 0 24 -6 26 -12z"/>
<path d="M1742 2058 c-16 -16 -15 -33 1 -46 18 -16 39 1 35 28 -4 28 -19 35
-36 18z"/>
<path d="M1570 2020 c-8 -5 -11 -12 -7 -16 4 -4 13 -2 19 4 15 15 7 24 -12 12z"/>
<path d="M1897 2064 c-11 -12 -8 -41 6 -52 18 -16 39 1 35 29 -3 23 -27 37
-41 23z"/>
<path d="M2220 2020 c-8 -5 -11 -12 -7 -16 4 -4 13 -2 19 4 15 15 7 24 -12 12z"/>
<path d="M2597 2064 c-11 -12 -8 -41 6 -52 18 -16 39 1 35 29 -3 23 -27 37
-41 23z"/>
<path d="M3285 2060 c-4 -6 5 -10 20 -10 15 0 24 4 20 10 -3 6 -12 10 -20 10
-8 0 -17 -4 -20 -10z"/>
<path d="M3451 2021 c-9 -6 -10 -11 -2 -15 13 -8 31 1 31 15 0 11 -11 11 -29
0z"/>
<path d="M1500 1720 c331 -263 784 -387 1185 -326 275 42 542 158 755 326 25
20 22 20 -970 20 -994 0 -995 0 -970 -20z"/>
</g>
</svg>
